<svg width="169" height="154" viewBox="0 0 169 154" fill="none" xmlns="http://www.w3.org/2000/svg">
<path d="M32.449 51.1371C34.8528 50.9065 34.9793 50.9641 35.3588 52.924C39.4705 73.041 73.1862 69.5249 76.7919 48.6008C77.5509 44.2777 78.8793 42.5484 81.5994 42.5484C82.6747 42.5484 83.1175 42.8943 83.1175 43.6436C83.1175 57.6506 108.041 67.2192 118.035 57.0166C121.577 53.4428 125.627 46.7563 126.006 43.9318L126.322 41.338L129.991 40.9921C136.379 40.3004 136.317 40.0122 127.587 27.792C112.406 6.57977 100.64 -2.12415 94.1241 2.94834C92.1632 4.50466 92.353 4.44703 91.9102 17.2436C91.9102 18.1082 92.5433 18.8575 93.4289 19.0881C97.2876 19.9527 101.715 17.013 98.4256 15.6872C97.0339 15.1108 96.9707 14.9379 97.3502 11.0759C97.9195 5.42693 98.3624 5.25402 102.537 9.34661C112.152 18.7999 118.415 24.0453 121.072 28.6567C121.768 29.8095 121.705 29.9825 121.072 29.3484C120.313 28.7143 116.074 28.3108 116.074 28.8872C116.074 29.0026 116.96 30.4436 118.035 31.9999C128.346 47.1598 109.685 66.7004 96.4646 54.5956C86.5334 45.5458 95.2634 27.9073 109.686 27.9073C113.671 27.9073 114.367 27.2733 111.773 26.0628C104.562 22.6619 91.9734 28.0226 86.4069 36.8995L84.5731 39.8392L80.1451 39.9545C77.6148 40.0122 75.7171 39.8392 75.7171 39.4934C75.7171 38.3405 72.5543 36.0925 70.9729 36.0925C68.9487 36.0925 68.9481 36.6689 70.909 39.2628C79.3854 50.6183 62.9387 67.4498 49.6548 60.9939C32.9551 52.8664 45.4805 28.2532 63.6984 33.4986C68.9487 34.9973 69.7704 34.9973 69.1378 33.4986C64.7731 23.1807 42.3177 30.4436 37.1307 43.8165C35.739 47.448 35.6118 47.5633 33.4611 47.5633C31.6267 47.5633 31.3104 47.3903 31.6899 46.5257C31.943 45.9493 33.4611 40.4733 35.1691 34.248C40.4826 14.6497 46.998 2.14134 48.706 8.48198C49.7813 12.5169 49.9078 20.4715 48.8957 20.4715C46.2389 20.4715 46.2389 24.2759 48.959 24.8523C54.7786 26.1781 56.8028 11.1911 51.426 6.75272C45.4166 1.79549 38.206 6.63741 34.2841 18.4541C33.3352 21.3361 31.5635 26.351 30.3616 29.6366C24.1624 46.5257 24.7317 51.7711 32.449 51.1371Z" fill="black"/>
<path d="M158.329 102.899C152.572 90.2754 150.295 94.1374 153.458 101.054C155.229 104.974 155.482 105.954 154.66 105.666C141.06 100.709 113.543 108.606 96.8433 122.382L88.873 128.953C88.4935 123.131 88.3037 119.788 87.9874 117.944C87.7344 116.33 84.8885 115.868 84.5722 117.655C84.1927 119.788 84.2559 123.592 84.2559 129.645L82.2943 127.627C72.5528 117.54 44.088 114.716 17.2034 121.229C12.7121 122.324 12.7121 123.42 17.0768 109.067C22.9597 89.526 24.6676 80.0151 25.8063 76.2107C26.3123 74.4814 46.9972 74.1356 54.7777 75.6919C62.0522 77.1329 78.1827 83.7618 80.5231 86.1828C81.2822 86.9898 81.9148 90.333 82.9269 98.8064C84.445 111.488 84.6355 110.623 85.8373 111.084C87.988 111.833 86.9121 100.709 86.0897 86.7015L94.377 81.2832C113.986 68.4867 131.065 69.6971 134.101 69.1783L138.15 74.7696C147.133 87.105 148.461 91.7164 149.663 88.9496C150.105 87.912 138.782 66.988 137.011 65.5469C133.659 62.8377 105.699 61.9154 86.5958 79.0352C81.5985 83.5312 82.1684 83.3583 79.5117 81.5138C62.3692 69.5818 23.9718 65.201 21.8211 74.9426C20.4927 80.8797 11.3838 104.686 8.09443 120.364C7.27208 124.399 7.20883 125.437 7.90464 126.705C8.727 128.204 9.16978 128.319 11.8265 127.858C12.9652 127.685 13.1549 128.089 13.5977 132.239C14.1038 136.62 15.3689 139.271 16.634 138.579C17.5196 138.118 17.2666 139.156 16.2545 140.366C13.8507 143.248 16.5075 149.07 20.1132 148.84C21.6946 148.724 22.1374 149.013 22.7067 150.454C23.6555 152.817 24.8574 153.048 27.5142 151.376C30.2974 149.647 35.2947 146.822 43.6446 145.035C51.9945 143.248 78.2459 145.035 80.8394 146.131C82.4208 146.822 83.2432 146.937 83.5595 146.476C83.8125 146.13 85.9632 145.669 88.4302 145.496C96.7168 144.862 109.938 143.479 115.884 142.557C124.74 141.173 141.377 141.634 146.88 143.421C153.016 145.381 154.913 143.364 150.802 139.271C149.347 137.83 149.283 137.657 150.422 137.945C159.341 140.078 160.986 137.254 155.736 128.723C153.395 124.918 153.395 125.091 156.747 125.091C160.732 125.091 160.543 123.708 155.862 117.252C151.624 111.43 151.624 111.372 156.685 112.929C162.757 114.773 163.01 113.159 158.329 102.899ZM40.6715 136.62C33.0175 137.254 25.9328 140.654 25.2369 140.885C24.1616 141.173 23.4657 140.539 23.9086 139.041C24.1616 138.118 24.4778 137.023 24.5411 136.562C25.0472 133.565 46.4279 130.625 56.5489 132.181C66.4802 133.68 67.9351 134.314 76.4747 137.081C61.9257 136.158 48.8316 135.928 40.6715 136.62ZM82.7371 133.449C50.8558 125.206 38.3317 124.918 21.315 131.893C19.0378 132.873 17.0768 133.565 17.0136 133.449C16.8871 133.276 16.5075 130.048 16.0647 126.763C31.4361 123.362 43.7078 120.249 58.7629 122.036C63.2541 122.555 69.3268 124.63 73.9445 127.166C81.8515 131.547 85.5204 134.199 82.7371 133.449ZM101.271 126.013C118.793 112.237 131.128 108.029 145.235 111.084C146.689 111.372 152.446 117.944 151.813 118.52C151.687 118.635 150.358 118.462 148.84 118.116C137.011 115.753 130.307 116.675 114.429 122.958C110.254 124.63 105.889 126.302 104.75 126.705C100.069 128.377 88.6832 135.928 101.271 126.013ZM148.018 129.875C140.364 128.55 131.571 128.78 123.664 130.452C117.718 131.72 99.6266 135.121 99.0573 134.66C98.741 134.429 107.724 130.279 112.215 128.089C121.324 123.65 132.267 122.151 145.235 123.535C148.018 123.823 148.397 124.111 150.738 127.109C153.837 131.086 153.964 130.913 148.018 129.875Z" fill="black"/>
</svg>
